<?xml version="1.0" encoding="utf-8"?>
<!-- Generator: Adobe Illustrator 23.1.0, SVG Export Plug-In . SVG Version: 6.00 Build 0)  -->
<svg version="1.1"
	 id="Layer_1" image-rendering="optimizeQuality" text-rendering="geometricPrecision" shape-rendering="geometricPrecision"
	 xmlns="http://www.w3.org/2000/svg" xmlns:xlink="http://www.w3.org/1999/xlink" x="0px" y="0px" viewBox="0 0 64 64"
	 style="enable-background:new 0 0 64 64;" xml:space="preserve">
<style type="text/css">
	.st0{fill-rule:evenodd;clip-rule:evenodd;fill:#FFFFFF;}
</style>
<path class="st0" d="M58,0H6C2.7,0,0,2.7,0,6v52c0,3.3,2.7,6,6,6h52c3.3,0,6-2.7,6-6V6C64,2.7,61.3,0,58,0z M22.5,9.7h19
	c7.1,0,13,5.8,13,12.8v18.9c0,7-5.8,12.8-13,12.8h-19c-7.1,0-13-5.8-13-12.8V22.5C9.5,15.5,15.4,9.7,22.5,9.7z M31.9,20
	c6.9,0,12.6,5.6,12.6,12.6c0,6.9-5.6,12.6-12.6,12.6c-6.9,0-12.6-5.6-12.6-12.6C19.3,25.6,24.9,20,31.9,20z M31.9,24.2
	c4.6,0,8.3,3.7,8.3,8.3c0,4.6-3.7,8.3-8.3,8.3c-4.6,0-8.3-3.7-8.3-8.3C23.6,27.9,27.3,24.2,31.9,24.2L31.9,24.2z M44,18.2
	c1.1,0,2,0.9,2,2s-0.9,2-2,2c-1.1,0-2-0.9-2-2C42,19.1,42.9,18.2,44,18.2z M24.1,13.4h15.9c6,0,10.8,4.9,10.8,10.8v16
	c0,5.9-4.9,10.8-10.8,10.8H24.1c-6,0-10.8-4.9-10.8-10.8v-16C13.2,18.2,18.1,13.4,24.1,13.4L24.1,13.4z"/>
</svg>
