<?xml version="1.0" encoding="utf-8"?>
<!-- Generator: Adobe Illustrator 23.1.0, SVG Export Plug-In . SVG Version: 6.00 Build 0)  -->
<svg version="1.1" id="Layer_1" xmlns="http://www.w3.org/2000/svg" xmlns:xlink="http://www.w3.org/1999/xlink" x="0px" y="0px"
	 viewBox="0 0 300 300" style="enable-background:new 0 0 300 300;" xml:space="preserve">
<style type="text/css">
	.st0{fill:#FFFFFF;}
</style>
<g id="XMLID_526_">
	<path id="XMLID_527_" class="st0" d="M14.5,208.9c0.6,0,1.1-0.5,1.2-1.2l3.4-26.7l-3.4-27.3c-0.1-0.7-0.6-1.2-1.2-1.2
		c-0.6,0-1.2,0.5-1.3,1.2L10.3,181l2.9,26.7C13.3,208.4,13.9,208.9,14.5,208.9z"/>
	<path id="XMLID_530_" class="st0" d="M3.4,198.8c0.6,0,1.1-0.5,1.2-1.2L7.2,181l-2.6-16.9c-0.1-0.7-0.6-1.2-1.2-1.2
		c-0.6,0-1.1,0.5-1.2,1.2L0,181l2.2,16.6C2.3,198.3,2.8,198.8,3.4,198.8z"/>
	<path id="XMLID_531_" class="st0" d="M27.8,148.6c-0.1-0.9-0.7-1.5-1.5-1.5c-0.8,0-1.4,0.6-1.5,1.5L22,181l2.8,31.2
		c0.1,0.9,0.7,1.5,1.5,1.5c0.8,0,1.4-0.6,1.5-1.5l3.2-31.2L27.8,148.6z"/>
	<path id="XMLID_532_" class="st0" d="M38.2,214.9c0.9,0,1.7-0.8,1.8-1.8l3-32.2l-3-33.3c-0.1-1-0.8-1.7-1.8-1.7
		c-0.9,0-1.7,0.8-1.8,1.8L33.7,181l2.7,32.2C36.5,214.2,37.2,214.9,38.2,214.9z"/>
	<path id="XMLID_533_" class="st0" d="M50.1,215.4c1.1,0,1.9-0.9,2-2l0,0L55,181l-2.8-30.9c-0.1-1.1-0.9-2-2-2c-1.1,0-1.9,0.9-2,2
		L45.6,181l2.5,32.4C48.2,214.6,49,215.4,50.1,215.4z"/>
	<path id="XMLID_534_" class="st0" d="M67.1,181l-2.7-50.2c-0.1-1.3-1.1-2.3-2.3-2.3c-1.2,0-2.2,1-2.3,2.3L57.6,181l2.3,32.4
		c0.1,1.3,1.1,2.3,2.3,2.3c1.2,0,2.2-1,2.3-2.3v0L67.1,181z"/>
	<path id="XMLID_535_" class="st0" d="M74.4,215.8c1.3,0,2.4-1.1,2.5-2.5v0l2.5-32.2l-2.5-61.7c-0.1-1.4-1.2-2.5-2.5-2.5
		c-1.4,0-2.5,1.1-2.5,2.5L69.7,181l2.2,32.2C71.9,214.7,73,215.8,74.4,215.8z"/>
	<path id="XMLID_536_" class="st0" d="M86.6,111.4c-1.5,0-2.7,1.2-2.8,2.8l-2,66.8l2,31.9c0.1,1.6,1.3,2.8,2.8,2.8
		c1.5,0,2.7-1.2,2.8-2.8v0l2.3-31.9l-2.3-66.8C89.4,112.7,88.1,111.4,86.6,111.4z"/>
	<path id="XMLID_782_" class="st0" d="M99,215.8c1.7,0,3-1.3,3-3.1v0l2.1-31.7l-2.1-69c-0.1-1.7-1.4-3.1-3-3.1c-1.7,0-3,1.3-3,3.1
		l-1.9,69l1.9,31.7C96,214.4,97.3,215.8,99,215.8z"/>
	<path id="XMLID_783_" class="st0" d="M111.5,215.7c1.8,0,3.2-1.5,3.3-3.3v0l2-31.4l-2-67.3c-0.1-1.9-1.5-3.3-3.3-3.3
		c-1.8,0-3.3,1.5-3.3,3.3l-1.7,67.3l1.7,31.4C108.2,214.3,109.7,215.7,111.5,215.7z"/>
	<path id="XMLID_784_" class="st0" d="M129.4,181l-1.8-64.8c0-2-1.6-3.6-3.6-3.6c-1.9,0-3.5,1.6-3.6,3.6l-1.6,64.8l1.6,31.2
		c0,2,1.6,3.6,3.6,3.6c1.9,0,3.5-1.6,3.6-3.6v0L129.4,181z"/>
	<path id="XMLID_785_" class="st0" d="M136.7,215.9c2.1,0,3.8-1.7,3.8-3.8v0l1.6-31l-1.6-77.2c0-2.1-1.7-3.8-3.8-3.8
		c-2.1,0-3.8,1.7-3.8,3.8l-1.4,77.1l1.4,31C132.9,214.1,134.6,215.9,136.7,215.9z"/>
	<path id="XMLID_786_" class="st0" d="M149.3,92.8c-2.2,0-4,1.8-4.1,4.1l-1.7,84.2l1.7,30.5c0,2.2,1.8,4.1,4.1,4.1
		c2.2,0,4-1.8,4-4.1v0l1.8-30.5l-1.8-84.2C153.3,94.7,151.5,92.8,149.3,92.8z"/>
	<path id="XMLID_787_" class="st0" d="M160.8,215.9c0.1,0,101.6,0.1,102.3,0.1c20.4,0,36.9-16.7,36.9-37.4
		c0-20.6-16.5-37.3-36.9-37.3c-5.1,0-9.9,1-14.3,2.9c-2.9-33.7-30.8-60.1-64.8-60.1c-8.3,0-16.4,1.7-23.6,4.5
		c-2.8,1.1-3.5,2.2-3.6,4.4v118.5C156.9,213.8,158.6,215.7,160.8,215.9z"/>
</g>
</svg>
